<svg version="1.1" xmlns="http://www.w3.org/2000/svg" style="display: block;" viewBox="0 0 2048 1365" width="1536" height="1024">
<path transform="translate(0,0)" fill="rgb(50,53,84)" d="M 0 0 L 2046.25 0 C 2047.39 1.79201 2047.78 3.34382 2047.88 5.45477 C 2048.76 24.6702 2048 44.2051 2048 63.4564 L 2048.01 176.585 L 2048.02 521.767 L 2048.01 1154.27 L 2048 1307.91 C 2048 1318.52 2049.59 1353.27 2047.72 1361.52 C 2047.43 1362.81 2046.95 1363.89 2046.25 1365 L 0 1365 L 0 0 z"/>
<path transform="translate(0,0)" fill="rgb(254,105,180)" d="M 1747.77 177.123 L 1751.11 175.984 L 1752.53 176.895 L 1752.32 181.157 C 1753.58 183.923 1754.05 185.806 1753.93 188.851 C 1753.27 190.152 1752.97 191.285 1751.72 192.091 C 1747.72 188.854 1749.55 181.854 1747.77 177.123 z"/>
<path transform="translate(0,0)" fill="rgb(254,254,254)" d="M 1708.54 755.498 L 1711 756.242 C 1714.91 760.791 1723.08 768.385 1722.62 774.691 C 1720.68 776.728 1720.48 776.395 1717.8 776.506 C 1717.43 772.261 1709.78 766.156 1706.99 762.746 C 1705.41 760.817 1704.84 759.577 1705.08 757.138 L 1708.54 755.498 z"/>
<path transform="translate(0,0)" fill="rgb(240,76,143)" d="M 1753.93 188.851 C 1756.84 188.651 1758.97 188.127 1761.69 189.4 L 1762.25 190.847 C 1764.76 192.451 1766.95 194.782 1767.52 197.825 C 1768.52 203.13 1763.45 208.787 1768.97 213.144 C 1771.11 214.831 1774.73 216.187 1777.38 216.617 L 1778.68 214.979 C 1781.54 212.983 1783 211.476 1786.8 212.133 C 1788.51 212.429 1791.45 213.849 1792.68 214.996 C 1793.07 215.17 1793.47 215.335 1793.85 215.52 C 1800.86 218.89 1798.04 223.37 1808.64 220.148 C 1808.93 220.059 1809.22 219.961 1809.52 219.867 L 1814.04 222.135 L 1812.96 223.709 C 1809.17 225.357 1805.44 226.35 1801.32 226.817 C 1798.15 227.177 1796.15 227.098 1793.62 225.125 C 1792.79 223.026 1792.05 220.84 1790.64 219.048 C 1790.37 218.708 1790.09 218.378 1789.82 218.043 C 1789.57 217.861 1789.34 217.629 1789.06 217.498 C 1786.44 216.266 1783.46 217.411 1780.86 218.141 L 1780.44 220.272 C 1778.79 222.249 1778.83 222.695 1776.18 223.09 C 1771.59 221.037 1766.2 219.174 1763.47 214.662 C 1760.61 209.924 1760.87 204.599 1762.1 199.418 L 1762.29 198.655 C 1761.07 195.938 1760.56 195.694 1758.03 194.056 L 1751.72 192.091 C 1752.97 191.285 1753.27 190.152 1753.93 188.851 z"/>
<path transform="translate(0,0)" fill="rgb(254,254,254)" d="M 1693.51 762.498 L 1697.04 763.098 C 1700.96 767.185 1706.57 772.003 1707.3 777.929 L 1705.85 779.534 C 1694.12 782.411 1674.56 779.471 1661.96 778.799 C 1657.11 777.871 1651.74 777.871 1646.8 777.478 C 1661.63 774.277 1680.49 770.34 1693.51 762.498 z"/>
<path transform="translate(0,0)" fill="rgb(240,76,143)" d="M 1756.73 533.437 C 1759.95 535.004 1764.97 537.291 1766.3 540.852 C 1766.42 541.168 1766.5 541.495 1766.6 541.816 C 1766.42 541.913 1766.23 542.012 1766.05 542.107 C 1756.75 546.821 1746.25 548.64 1737.12 553.923 C 1729.09 558.568 1722.83 566.161 1715.09 570.664 C 1715 570.244 1714.92 569.819 1714.81 569.403 C 1713.02 562.852 1704.83 558.994 1702.53 552.543 C 1705.18 550.612 1708.03 549.112 1711.24 548.415 L 1711.82 547.02 C 1716.51 547.708 1721.26 545.341 1725.63 543.759 C 1732.53 543.503 1750.79 537.272 1756.73 533.437 z"/>
<path transform="translate(0,0)" fill="rgb(240,76,143)" d="M 1792.41 140.937 C 1793.1 140.433 1793.44 140.077 1793.71 139.251 C 1794.5 136.803 1794.93 133.501 1796.95 131.738 C 1799.26 129.715 1802.53 129.62 1805.47 129.735 C 1811.53 129.972 1816.61 132.284 1820.79 136.702 C 1821.73 140.112 1820.84 141.812 1819.86 145.129 C 1821.96 146.505 1822.72 146.724 1823.75 149.078 C 1823.99 149.218 1824.23 149.365 1824.48 149.498 C 1833.19 154.217 1838.88 147.107 1844.09 159.821 L 1843.92 161.702 C 1846.13 163.637 1848.57 166.66 1848.72 169.726 C 1848.82 171.923 1847.58 173.836 1846.02 175.332 C 1843.75 177.521 1840.26 178.613 1837.83 180.841 L 1839.14 185.923 C 1840.03 189.49 1844 193.606 1843.87 196.959 C 1843.2 202.56 1838.91 207.54 1834.6 210.931 C 1833.37 211.903 1832.01 212.503 1830.51 212.949 C 1830.59 211.274 1830.17 210.365 1829.52 208.859 C 1833.21 205.803 1838.14 201.827 1839.29 197.036 C 1839.22 196.778 1839.18 196.509 1839.07 196.262 C 1837.97 193.627 1834.84 192.386 1832.47 191.093 C 1834.51 186.83 1835.23 183.383 1834.73 178.696 C 1837.44 173.398 1841.61 174.513 1843.78 170.319 C 1843.38 167.561 1842.52 166.161 1840.9 163.924 C 1839.02 155.015 1829.88 158.941 1821.71 152.079 C 1816.58 148.086 1816.59 146.382 1815.79 140.157 L 1815.78 137.792 C 1811.4 135.673 1806.18 133.984 1801.3 134.761 C 1798.97 136.689 1798.65 137.636 1797.67 140.352 C 1795.56 146.161 1786.33 146.724 1781.03 148.755 C 1779.08 145.994 1775.58 143.951 1772.48 142.683 C 1770.37 146.97 1765.46 149.946 1761.37 152.157 C 1763.41 153.547 1767.74 156.079 1768.5 158.458 C 1767.5 164.945 1766.28 170.495 1760.72 174.572 C 1758.75 176.02 1756.59 176.875 1754.32 177.714 L 1752.32 181.157 L 1752.53 176.895 L 1751.11 175.984 L 1747.77 177.123 C 1750.78 174.029 1753.84 172.236 1757.48 170.085 C 1760.36 168.386 1762.06 166.276 1762.89 163.067 C 1762.5 158.69 1759.03 154.225 1756.03 151.156 C 1762.76 146.992 1767.73 140.807 1775.87 139.291 C 1782.16 142.111 1785.67 142.459 1792.41 140.937 z"/>
<path transform="translate(0,0)" fill="rgb(254,254,254)" d="M 1713.12 1218.5 C 1726.45 1216.93 1740.79 1217.95 1754.23 1218 C 1758.51 1223.61 1762.1 1244.9 1763.55 1252.39 C 1762.29 1254.17 1760.11 1254.51 1758.13 1255.14 C 1754.85 1258.38 1747.13 1259.29 1742.62 1260.32 C 1739.76 1258.14 1735.82 1257.42 1732.77 1254.98 C 1718.62 1243.64 1721.4 1233.53 1713.48 1219.13 C 1713.36 1218.92 1713.24 1218.71 1713.12 1218.5 z"/>
<path transform="translate(0,0)" fill="rgb(240,76,143)" d="M 1666.19 664.496 C 1667.55 664.301 1668.92 664.264 1670.19 664.857 C 1678.48 668.711 1708.99 698.071 1711.3 705.633 C 1708.75 710.178 1696.49 713.957 1691.61 715.454 C 1688.98 718.066 1683.6 719.346 1680.16 720.605 C 1680.12 720.339 1680.13 720.066 1680.06 719.806 C 1678.97 715.671 1654.41 689.13 1649.7 686.381 C 1654.88 683.132 1664.57 670.432 1666.19 664.496 z"/>
<path transform="translate(0,0)" fill="rgb(254,254,254)" d="M 1751.46 508.499 C 1783.85 511.199 1801.07 521.37 1816.96 549.736 C 1822.04 558.808 1827.2 567.348 1836 573.296 C 1847.01 580.737 1861.4 582.382 1873.81 586.759 C 1892.13 593.22 1909.03 604.737 1917.47 622.754 C 1924.14 637 1925.36 654.089 1919.95 668.923 C 1917.18 676.496 1911.98 687.331 1904.29 690.906 C 1903.95 689.905 1903.43 688.21 1903.64 687.128 C 1903.97 685.424 1912.41 672.435 1913.73 669.403 C 1919.4 656.391 1919.27 642.717 1914.09 629.607 C 1896.35 584.719 1856.14 596.095 1828.87 577.169 C 1808.53 563.054 1807.39 534.706 1778.26 519.75 C 1769.53 515.262 1758.96 516.614 1750.12 512.748 L 1749.65 511.011 L 1751.46 508.499 z"/>
<path transform="translate(0,0)" fill="rgb(254,254,254)" d="M 1887.15 1217.5 C 1900.92 1214.97 1919.68 1216.9 1933.91 1216.99 C 1938.36 1221.75 1943.73 1243.65 1944.94 1250.65 C 1943.43 1253.24 1941.8 1253.68 1939.24 1255.01 C 1938.69 1255.75 1938.23 1256.35 1937.45 1256.86 C 1932.31 1260.26 1923.58 1261.11 1917.62 1260.11 C 1896.34 1256.52 1897.73 1231.58 1887.63 1218.11 C 1887.48 1217.9 1887.31 1217.7 1887.15 1217.5 z"/>
<path transform="translate(0,0)" fill="rgb(254,254,254)" d="M 1579.09 603.49 C 1586.8 601.454 1601.79 610.345 1609.09 613.976 C 1614.18 616.505 1618.92 619.479 1623.29 623.118 C 1628.51 627.462 1657.45 656.09 1659 660.718 C 1658.99 661.027 1659 661.336 1658.98 661.645 C 1658.65 666.001 1648.27 678.208 1644.82 681.12 C 1643.9 678.013 1640.87 675.868 1638.31 674.176 C 1637.55 670.732 1630.1 664.307 1627.67 661.246 C 1621.82 653.884 1614.31 637.134 1607.25 632.509 C 1594.9 633.997 1582.07 635.225 1569.65 634.033 C 1576.36 632.57 1583.21 631.268 1589.79 629.333 C 1594.04 628.083 1599.32 626.464 1601.54 622.36 C 1598.01 616.667 1585.16 611.252 1579.8 604.407 L 1579.09 603.49 z"/>
<path transform="translate(0,0)" fill="rgb(240,76,143)" d="M 1709.74 1242.5 C 1718.9 1245.83 1724.09 1265.38 1740.39 1268.4 C 1750.29 1270.24 1762.95 1263.48 1770.75 1257.79 C 1772.15 1259.21 1773.33 1260.44 1774.16 1262.3 C 1776.95 1268.56 1781.03 1281.38 1778.61 1287.92 L 1699.75 1287.69 C 1683.77 1287.48 1667.62 1288.73 1651.68 1287.57 C 1650.52 1285.85 1650.5 1284.13 1650.77 1282.05 C 1652.3 1270.26 1678.48 1263.88 1686.88 1257.31 C 1687.18 1257.07 1687.48 1256.82 1687.78 1256.58 C 1693.33 1260.84 1694.4 1268.75 1699.45 1273.76 C 1701.74 1274.58 1701.74 1274.85 1704.1 1273.85 L 1704.68 1271.52 C 1703.58 1265.34 1698.84 1257.4 1694.73 1252.7 C 1699.66 1250.7 1705.56 1245.83 1709.74 1242.5 z"/>
<path transform="translate(0,0)" fill="rgb(240,76,143)" d="M 1873.49 1251.09 C 1876.66 1246.67 1881.62 1246.38 1885.11 1242.96 C 1885.29 1243.1 1885.47 1243.25 1885.64 1243.39 C 1899.39 1255.19 1902.65 1270.01 1924.83 1268.58 C 1934.67 1267.94 1946.63 1257.52 1954.24 1260.13 C 1959.12 1264.91 1962.75 1276.8 1962.75 1283.67 C 1962.75 1284.99 1962.37 1286 1961.86 1287.19 C 1948.46 1287.9 1834.02 1288.34 1831 1286 C 1830.47 1283.55 1830.44 1282.51 1831.75 1280.26 C 1837.87 1269.7 1856.8 1260.71 1867.17 1254.38 L 1868.73 1254.88 C 1870.23 1253.48 1871.84 1252.3 1873.49 1251.09 z"/>
<path transform="translate(0,0)" fill="rgb(51,34,67)" d="M 1873.49 1251.09 C 1877.16 1254.14 1880.28 1261.26 1880.75 1265.97 C 1880.96 1268.05 1880.76 1270.13 1879.51 1271.8 C 1878.09 1272.07 1878.33 1272.3 1876.94 1271.39 C 1871.99 1268.17 1872.37 1259.49 1868.73 1254.88 C 1870.23 1253.48 1871.84 1252.3 1873.49 1251.09 z"/>
<path transform="translate(0,0)" fill="rgb(254,254,254)" d="M 1897.43 1295.5 C 1906.8 1295.44 1982.35 1293.5 1986.58 1297.2 L 1985.89 1298.88 C 1984.46 1299.78 1983.69 1300.16 1981.96 1300.24 C 1952.64 1301.6 1922.8 1300.5 1893.44 1300.38 L 1748.53 1300.3 L 1277.17 1300.8 C 1248.64 1300.67 1219.58 1301.95 1191.14 1300.67 L 1190.03 1299.01 L 1190.62 1296.89 C 1191.87 1296.12 1192.61 1295.84 1194.1 1295.74 C 1214.1 1294.39 1238.22 1295.75 1258.7 1295.74 L 1400.3 1295.89 L 1697.32 1295.92 A 13237 13237 0 0 0 1897.43 1295.5 z"/>
<path transform="translate(0,0)" fill="rgb(254,254,254)" d="M 1635.51 512.443 C 1649.82 496.699 1628.81 484.358 1628.48 469.07 C 1628.35 463.173 1631.54 459.066 1632.96 453.664 L 1633.2 452.688 C 1645.09 462.231 1662.03 474.575 1676.84 478.797 C 1683.06 480.568 1689.84 480.248 1696.07 481.966 C 1700.1 483.076 1702.55 484.942 1704.67 488.504 C 1705.79 495.99 1698.21 498.519 1696.08 505.017 C 1698.02 512.387 1700.34 507.431 1704.49 508.947 C 1707.55 510.062 1711.28 513.665 1714.09 515.503 C 1722.8 521.187 1732.94 519.784 1742.59 517.688 C 1745.88 521.956 1751.99 528.041 1753.31 533.173 C 1743.93 536.176 1734.78 540.115 1725.63 543.759 C 1721.26 545.341 1716.51 547.708 1711.82 547.02 C 1713.55 537.457 1707.03 536.929 1702.12 531.296 C 1699.76 528.585 1698.53 523.579 1696.76 520.293 C 1692.17 520.974 1686 527.803 1682.11 530.835 C 1677.17 534.672 1670.48 539.462 1663.87 538.404 C 1652.01 536.503 1658.63 527.787 1654.41 521.808 C 1650.64 522.358 1646.91 522.759 1643.11 523.059 C 1641.97 519.399 1638.32 515.018 1635.51 512.443 z"/>
<path transform="translate(0,0)" fill="rgb(50,53,84)" d="M 1781.03 148.755 C 1786.33 146.724 1795.56 146.161 1797.67 140.352 C 1798.65 137.636 1798.97 136.689 1801.3 134.761 C 1806.18 133.984 1811.4 135.673 1815.78 137.792 L 1815.79 140.157 C 1816.59 146.382 1816.58 148.086 1821.71 152.079 C 1829.88 158.941 1839.02 155.015 1840.9 163.924 C 1842.52 166.161 1843.38 167.561 1843.78 170.319 C 1841.61 174.513 1837.44 173.398 1834.73 178.696 C 1835.23 183.383 1834.51 186.83 1832.47 191.093 C 1834.84 192.386 1837.97 193.627 1839.07 196.262 C 1839.18 196.509 1839.22 196.778 1839.29 197.036 C 1838.14 201.827 1833.21 205.803 1829.52 208.859 C 1830.17 210.365 1830.59 211.274 1830.51 212.949 L 1829 214.145 C 1825.25 213.256 1823.57 211.621 1819.92 213.127 C 1817.9 215.412 1817.45 217.31 1816.77 220.247 C 1815.88 220.891 1815 221.613 1814.04 222.135 L 1809.52 219.867 C 1809.22 219.961 1808.93 220.059 1808.64 220.148 C 1798.04 223.37 1800.86 218.89 1793.85 215.52 C 1793.47 215.335 1793.07 215.17 1792.68 214.996 C 1791.45 213.849 1788.51 212.429 1786.8 212.133 C 1783 211.476 1781.54 212.983 1778.68 214.979 L 1777.38 216.617 C 1774.73 216.187 1771.11 214.831 1768.97 213.144 C 1763.45 208.787 1768.52 203.13 1767.52 197.825 C 1766.95 194.782 1764.76 192.451 1762.25 190.847 L 1761.69 189.4 C 1758.97 188.127 1756.84 188.651 1753.93 188.851 C 1754.05 185.806 1753.58 183.923 1752.32 181.157 L 1754.32 177.714 C 1756.59 176.875 1758.75 176.02 1760.72 174.572 C 1766.28 170.495 1767.5 164.945 1768.5 158.458 C 1767.74 156.079 1763.41 153.547 1761.37 152.157 C 1765.46 149.946 1770.37 146.97 1772.48 142.683 C 1775.58 143.951 1779.08 145.994 1781.03 148.755 z"/>
<path transform="translate(0,0)" fill="rgb(254,105,180)" d="M 1822.21 206.001 C 1824.43 206.295 1827.38 207.988 1829.52 208.859 C 1830.17 210.365 1830.59 211.274 1830.51 212.949 L 1829 214.145 C 1825.25 213.256 1823.57 211.621 1819.92 213.127 C 1817.9 215.412 1817.45 217.31 1816.77 220.247 C 1815.88 220.891 1815 221.613 1814.04 222.135 L 1809.52 219.867 L 1812.6 218.301 C 1813.72 212.751 1818.07 209.409 1822.21 206.001 z"/>
<path transform="translate(0,0)" fill="rgb(240,76,143)" d="M 1793.79 170.498 C 1795.67 170.111 1797.64 169.723 1799.57 169.908 C 1802.55 170.194 1806.14 172.493 1807.73 175.031 C 1808.98 177.037 1809.27 179.35 1808.37 181.553 C 1807.31 184.116 1804.74 185.454 1802.4 186.613 C 1801.94 187.008 1801.72 187.256 1801.07 187.461 C 1798.12 188.399 1796.21 187.98 1793.57 186.839 C 1791.82 184.909 1791.06 183.121 1790.59 180.59 C 1789.76 176.108 1791.33 173.974 1793.79 170.498 z"/>
<path transform="translate(0,0)" fill="rgb(151,247,217)" d="M 1857.33 298.499 C 1869.69 297.415 1880.96 298.943 1891.32 306.208 A 42.5162 42.5162 0 0 1 1908.92 334.088 A 44.0155 44.0155 0 0 1 1901.31 367.503 C 1894.34 377.13 1883.82 383.175 1872.16 384.966 C 1862.59 386.165 1852.53 384.453 1844.06 379.789 A 43.0252 43.0252 0 0 1 1823.59 353.68 A 43.8791 43.8791 0 0 1 1828.01 319.539 C 1834.7 307.936 1844.63 301.8 1857.33 298.499 z"/>
<path transform="translate(0,0)" fill="rgb(50,53,84)" d="M 1859.89 303.499 C 1869.82 302.548 1880.2 305.002 1888.32 310.906 A 37.5352 37.5352 0 0 1 1903.35 336.314 A 39.9589 39.9589 0 0 1 1895.21 366.126 C 1888.67 374.341 1879.33 378.747 1869.06 379.957 C 1861.97 380.52 1854.27 378.808 1847.98 375.527 A 38.6119 38.6119 0 0 1 1829.09 352.26 C 1826.11 342.365 1827.49 331.848 1832.51 322.857 C 1838.79 311.6 1847.87 306.808 1859.89 303.499 z"/>
<path transform="translate(0,0)" fill="rgb(151,247,217)" d="M 1863.41 332.499 C 1865.5 332.384 1867.65 332.58 1869.54 333.555 C 1871.83 334.729 1873.46 337.001 1873.94 339.509 C 1874.39 341.876 1873.7 344.313 1872.31 346.25 C 1870.41 348.902 1868.19 349.501 1865.13 350.135 C 1863.96 350.156 1862.67 350.191 1861.54 349.892 C 1859.51 349.361 1857.77 347.649 1856.88 345.811 C 1855.78 343.552 1855.9 340.862 1856.73 338.535 C 1857.92 335.203 1860.35 333.885 1863.41 332.499 z"/>
<path transform="translate(0,0)" fill="rgb(254,254,254)" d="M 1690.35 410.499 C 1709.05 408.471 1729.38 410.98 1744.42 423.128 C 1755.19 431.83 1762.58 444.64 1763.82 458.514 C 1765.12 472.997 1760.65 488.632 1751.1 499.714 C 1746.01 505.619 1738.67 510.817 1730.63 511.234 C 1721.2 511.723 1716 507.676 1709.2 501.698 C 1709.85 500.649 1710.35 499.456 1710.84 498.327 C 1712.51 494.408 1712.67 489.047 1710.83 485.155 C 1705.9 474.725 1691.86 473.681 1682.11 471.215 C 1677.17 469.966 1672.29 468.126 1667.47 466.485 C 1664.44 464.195 1660.66 462.885 1657.45 460.801 C 1651.21 456.75 1645.36 452.011 1639.36 447.616 C 1637.47 446.227 1636.29 445.275 1633.92 444.87 C 1631.12 445.544 1629.72 445.811 1627.81 448.18 C 1622.43 454.836 1621.91 466.168 1622.53 474.277 C 1623.19 482.845 1630.2 489.911 1633.02 498.023 L 1632.25 498.124 C 1624.7 490.058 1617.33 481.919 1615.23 470.683 C 1613.67 462.312 1613.58 452.992 1618.66 445.739 C 1624.66 437.178 1633.4 435.392 1643.01 433.736 C 1646.82 432.166 1650.13 428.797 1653.56 426.45 C 1665.36 418.371 1676.38 413.532 1690.35 410.499 z"/>
<path transform="translate(0,0)" fill="rgb(254,254,254)" d="M 1575.82 642.5 C 1581.62 642.122 1587.47 642.097 1593.28 641.948 C 1595.24 642.728 1597.22 643.548 1599.02 644.648 C 1613.95 653.773 1661.95 709.803 1673.44 725.937 C 1677.07 731.037 1688.23 750.679 1689.56 756.453 C 1682.68 762.556 1634.59 774.696 1624.01 776.434 C 1616.03 777.746 1591.72 781.955 1585.21 777.254 L 1585.28 775.273 C 1589.7 771.772 1596.8 772.917 1602.03 771.233 C 1603.56 770.739 1604.2 768.566 1604.95 767.186 C 1604.67 767.041 1604.4 766.869 1604.11 766.753 C 1593.75 762.648 1583.43 767.154 1573.91 770.443 C 1571.48 771.281 1570.3 771.274 1568.05 770.149 C 1574.2 760.441 1588.21 763.322 1597.1 759.698 L 1596.94 758.929 C 1582.17 750.918 1566.5 764.394 1561.62 762.776 C 1568.16 751.742 1601.83 749.352 1615.79 744.199 C 1622.14 741.857 1631.72 738.507 1634.74 731.912 C 1633.79 723.853 1616.03 725.753 1611.89 717.907 L 1612.87 716.248 C 1619.53 715.032 1626.6 718.789 1632.98 717.591 C 1635.28 717.16 1637.33 716.015 1638.54 714.022 C 1636.87 711.695 1634.73 711.403 1631.96 710.981 C 1624.43 709.834 1612.71 708.245 1606.1 713.066 C 1605.35 714.674 1604.66 715.487 1605.17 717.339 C 1607.21 724.749 1615.55 727.227 1621.4 730.705 C 1607.46 741.81 1588.15 742.18 1571.62 747.177 C 1566.75 748.649 1562.43 751.546 1557.46 752.504 C 1557.39 752.219 1557.35 751.922 1557.24 751.65 C 1555.94 748.532 1475.45 666.397 1469.36 662.941 C 1510.18 663.355 1551.82 659.135 1592.66 657.203 C 1608.47 665.856 1648.28 725.114 1660.94 729.552 C 1663.34 730.393 1664.25 730.411 1666.44 729.274 L 1666.47 727.104 C 1665.18 724.388 1608.32 661 1602.1 654.885 C 1599.77 652.592 1597.55 650.998 1594.55 649.659 C 1576.85 649.63 1479.36 657.359 1471.71 653.17 L 1471.68 651.465 C 1472.59 650.644 1473.73 649.289 1474.75 648.689 C 1479.01 646.185 1564.05 643.36 1575.82 642.5 z"/>
<path transform="translate(0,0)" fill="rgb(50,53,84)" d="M 1541.9 669.498 C 1553.3 668.416 1563.68 670.216 1573.3 676.792 C 1579.69 681.161 1585.43 687.961 1586.73 695.807 C 1587.38 699.735 1587.08 703.728 1584.59 706.996 C 1580.87 711.878 1575.09 714.406 1569.23 715.39 C 1565.23 717.277 1555.97 715.194 1551.91 713.912 C 1543.06 711.117 1533.5 704.637 1529.18 696.203 C 1526.93 691.814 1526.11 686.612 1527.83 681.895 C 1530.2 675.389 1535.91 672.065 1541.9 669.498 z"/>
<path transform="translate(0,0)" fill="rgb(254,254,254)" d="M 1541.86 678.497 C 1549.52 677.269 1557.1 677.302 1564.31 680.41 C 1569.93 682.831 1576.69 687.623 1578.78 693.629 C 1579.58 695.948 1579.58 698.251 1578.26 700.38 C 1576.06 703.93 1572.06 705.979 1568.19 707.033 C 1566.62 708.262 1564.08 708.236 1562.15 708.167 C 1553.85 707.87 1543.83 703.794 1538.4 697.365 C 1536.01 694.548 1534.18 690.843 1534.75 687.053 C 1535.41 682.711 1538.56 680.846 1541.86 678.497 z"/>
<path transform="translate(0,0)" fill="rgb(240,76,143)" d="M 1587.64 206.996 C 1608.24 197.337 1627.27 193.515 1649.28 201.662 C 1667.55 208.428 1682.24 222.92 1690.15 240.641 A 74.1907 74.1907 0 0 1 1691.32 297.441 A 73.4953 73.4953 0 0 1 1651.93 337.969 C 1634.66 345.359 1614.89 346.197 1597.37 339.17 C 1584.36 333.95 1574.38 325.254 1565.22 314.876 C 1563.54 310.589 1560.41 305.698 1557.56 302.055 C 1557.76 297.826 1554.49 291.484 1553.24 287.273 C 1550.34 277.465 1550.8 264.824 1552.82 254.851 C 1557.02 234.1 1570.39 218.477 1587.64 206.996 z"/>
<path transform="translate(0,0)" fill="rgb(50,53,84)" d="M 1593.58 208.898 C 1616.4 202.332 1633.08 198.207 1655.34 210.417 A 67.764 67.764 0 0 1 1688.11 250.849 C 1693.1 268.014 1691.73 287.292 1683.04 303.049 C 1674.43 318.671 1658.97 331.351 1641.76 336.194 C 1626.04 340.616 1606.61 339.221 1592.37 330.907 C 1584.68 326.417 1575.65 315.917 1569.27 312.899 C 1569.17 309.156 1562.56 300.288 1559.9 297.668 C 1561.26 294.325 1556.05 278.841 1556.05 273.375 C 1556.06 253.384 1563.39 232.504 1578.92 219.185 C 1583.05 215.637 1589.18 213.531 1592.83 209.71 C 1593.09 209.444 1593.33 209.168 1593.58 208.898 z"/>
<path transform="translate(0,0)" fill="rgb(240,76,143)" d="M 1657.73 243.494 L 1661.59 242.954 L 1662.29 244.188 C 1659.64 252.302 1624.98 285.542 1617.12 289.856 C 1616.31 284.73 1602.82 273.995 1598.41 270.68 C 1597.95 267.72 1595.61 266.969 1595.7 263.617 C 1596.55 263.311 1596.89 262.911 1597.74 263.328 C 1602.96 265.898 1615.1 276.228 1616.98 281.929 C 1625.87 277.111 1651.71 251.91 1657.73 243.494 z"/>
<path transform="translate(0,0)" fill="rgb(240,76,143)" d="M 1775.01 544.498 C 1779.67 543.644 1784.43 546.778 1788.31 549.057 C 1817.66 566.309 1883.54 665.206 1900.34 699.281 C 1905.96 710.661 1910.29 723.378 1913.54 735.639 C 1917.75 751.554 1925.24 797.783 1917.35 811.327 C 1911.84 814.868 1901.13 816.876 1894.7 817.992 C 1840.38 827.415 1795.36 800.15 1743.86 789.34 C 1744.02 789.222 1744.19 789.118 1744.33 788.985 C 1748.87 784.787 1768.03 746.023 1768.1 740.274 C 1786.19 735.945 1805.03 734.098 1822.89 729.008 C 1835.4 725.444 1847.6 719.218 1853.95 707.301 C 1858.83 698.141 1858.64 688.25 1855.65 678.52 C 1848.69 655.856 1804.27 590.969 1783.93 580.043 C 1781.62 580.07 1781.6 579.982 1779.85 581.474 C 1779.36 588.182 1824.67 629.036 1826.43 641.548 C 1830.47 644.772 1833.41 650.29 1836.12 654.676 C 1841.64 663.642 1852.51 681.365 1850.02 691.822 C 1850.1 692.087 1850.21 692.344 1850.26 692.616 C 1850.96 696.175 1848.49 701.173 1846.65 704.176 C 1843.12 709.949 1836.79 715.619 1830.61 718.411 C 1815.51 725.246 1774.3 731.661 1755.51 735.988 C 1736.69 740.321 1718.3 746.127 1699.57 750.754 C 1699.55 750.506 1699.55 750.253 1699.5 750.009 C 1698.41 745.087 1686.88 730.782 1682.54 727.916 C 1709.45 720.144 1733.33 702.007 1759.56 692.035 C 1767.79 688.904 1800.28 680.429 1804.48 677.116 C 1804.97 676.73 1805.25 676.346 1805.67 675.863 C 1805.43 675.329 1805.31 674.721 1804.95 674.261 C 1803.41 672.319 1797.53 669.782 1795.07 668.175 C 1787.72 663.378 1780.9 658.166 1774.21 652.489 A 1091.22 1091.22 0 0 1 1734.63 616.694 C 1729.82 612.141 1724.1 604.619 1718.65 601.213 C 1716.37 599.79 1715.37 599.841 1712.83 600.307 L 1711.89 602.08 C 1714 609.911 1760.03 650.202 1769.76 658.392 C 1775.26 663.02 1784.68 668.534 1788.59 674.262 C 1782.97 678.257 1772.32 680.177 1765.63 682.285 C 1761.51 668.634 1728.55 647.07 1716.72 637.179 C 1709.72 631.329 1703.19 623.776 1695.48 618.973 C 1704.18 610.587 1703 588.667 1712.5 580.798 L 1716.04 582.155 C 1721.02 580.863 1728.43 568.522 1733.36 564.779 C 1744.5 556.309 1761.77 554.873 1772.21 548.434 C 1774.39 547.089 1774.39 547.011 1775.01 544.498 z"/>
<path transform="translate(0,0)" fill="rgb(254,254,254)" d="M 1875.55 828.1 C 1885.83 827.352 1901.54 826.529 1910.54 821.346 C 1911 822.439 1911.34 823.547 1911.46 824.733 C 1912.98 840.393 1877.98 940.095 1867.85 953.133 C 1867.77 953.562 1867.71 953.993 1867.62 954.42 C 1866.2 961.83 1858.07 969.653 1859.7 977.322 C 1862.23 977.542 1863.12 976.904 1865.04 975.168 C 1867.72 972.748 1870.87 965.127 1870.94 961.606 C 1870.94 961.116 1870.78 960.42 1870.69 959.975 C 1875.98 961.894 1879.79 967.904 1882.37 972.86 C 1888.8 985.213 1889.84 1000.31 1892.41 1013.81 A 473.412 473.412 0 0 0 1899.67 1046.04 C 1907.86 1078.26 1917.74 1110.2 1926.88 1142.17 C 1930.26 1154 1944.42 1196.59 1943.27 1205.61 C 1943.16 1206.47 1942.96 1207.26 1942.7 1208.08 A 2383.12 2383.12 0 0 1 1863.55 1208.45 C 1863.52 1206.26 1862.65 1204.61 1861.62 1202.72 L 1802.58 1096.18 C 1794.51 1081.62 1783.94 1066.64 1777.88 1051.19 C 1771.66 1035.33 1769.72 1016.79 1767.34 999.992 C 1766.18 991.8 1765.77 981.065 1762.15 973.59 C 1762.3 973.489 1762.47 973.398 1762.61 973.286 C 1769.73 967.903 1792.36 936.051 1799.65 926.792 C 1823.26 896.782 1848.03 867.421 1870.8 836.782 C 1872.83 834.039 1875.05 831.564 1875.55 828.1 z"/>
<path transform="translate(0,0)" fill="rgb(50,53,84)" d="M 1871.81 981.496 C 1874.04 981.684 1874.25 981.729 1875.99 983.112 C 1876.69 986.088 1876.2 988.41 1875.25 991.241 C 1873.65 996.006 1869.68 1004.24 1865.1 1006.5 C 1864.54 1006.39 1863.33 1005.5 1862.82 1005.19 C 1862.11 1000.78 1869.88 986.389 1871.81 981.496 z"/>
<path transform="translate(0,0)" fill="rgb(254,254,254)" d="M 1739.56 796.497 C 1751.13 795.086 1810.24 817.904 1826.84 822.144 C 1839.72 825.435 1853.06 826.859 1866.24 828.327 C 1865.96 834.235 1795.13 921.948 1786.06 933.506 C 1775.59 946.846 1759.54 962.515 1754.6 978.762 C 1740.95 1023.59 1758.9 1118.37 1766.17 1166.07 C 1767.44 1174.4 1772.39 1194.69 1770.32 1201.5 C 1770.75 1202.31 1771.23 1203.12 1771.51 1204 C 1772.27 1206.3 1772.68 1207.41 1771.52 1209.51 C 1762.4 1210.91 1751.95 1209.9 1742.68 1209.88 L 1688.58 1209.93 C 1691.2 1197.96 1629.26 1043.41 1633.19 1000.8 C 1636.44 965.635 1693.29 871.1 1713.76 838.83 C 1718.08 832.008 1738.33 802.985 1739.37 797.622 C 1739.44 797.249 1739.5 796.872 1739.56 796.497 z"/>
<path transform="translate(0,0)" fill="rgb(50,53,84)" d="M 1701.62 980.496 C 1708.11 980.605 1708.43 989.009 1713.38 992.255 C 1718.71 995.756 1727.42 993.722 1732.07 997.909 L 1731.75 999.852 L 1728.37 1001.64 A 26.9931 26.9931 0 0 1 1715.47 1000.25 C 1709.8 998.242 1704.04 994.701 1701.55 988.991 C 1700.17 985.839 1700.33 983.615 1701.62 980.496 z"/>
<path transform="translate(0,0)" fill="rgb(254,254,254)" d="M 95.4187 50.0767 C 108.115 49.6934 122.285 52.7278 134.944 54.2873 L 213.413 63.9306 L 521.94 102.585 L 1124.37 176.852 L 1366.93 206.322 C 1397.55 210.222 1429.18 212.151 1459.52 217.509 C 1465.8 218.619 1473.82 219.908 1477.61 225.437 C 1480.42 229.532 1481.92 233.357 1482.16 238.341 C 1483.85 272.738 1482.78 307.672 1482.64 342.115 L 1482.35 506.602 L 1482.74 594.568 C 1482.81 608.886 1484.48 625.624 1481.82 639.598 C 1478.92 640.396 1475.96 640.237 1473.05 640.883 C 1469.78 641.609 1465.27 646.66 1463.75 649.535 C 1454.98 666.046 1478.5 676.854 1480.51 685.529 C 1480.59 685.86 1480.64 686.198 1480.7 686.532 C 1481.12 687.521 1481.53 688.581 1481.72 689.641 C 1483.63 700.341 1482.22 713.819 1482.33 724.848 L 1482.85 818.327 L 1484.05 974.656 C 1484.13 998.864 1485.39 1023.66 1483.95 1047.77 C 1483.71 1051.76 1481.69 1055.44 1479.35 1058.59 C 1475.13 1064.3 1468.6 1067.15 1461.99 1069.27 C 1446.37 1074.27 1428.14 1075.38 1411.93 1077.72 L 1319.78 1090.96 C 1268.5 1099.88 1216.46 1105.83 1164.88 1112.83 L 957.829 1142.41 L 127.559 1261.94 C 119.033 1263.12 104.231 1266.96 96.2888 1264.45 C 91.6032 1262.97 87.6266 1260.53 85.3053 1256.09 C 83.1937 1252.05 82.2109 1247.3 81.8691 1242.79 C 81.0837 1232.41 81.6831 1221.63 81.6987 1211.21 L 81.7356 1150.94 L 81.2793 968.24 L 81.0256 267.816 L 80.9622 147.439 C 80.9145 131.011 78.4335 73.521 82.298 62.6131 C 84.6677 55.9242 89.3862 52.9589 95.4187 50.0767 z"/>
<path transform="translate(0,0)" fill="rgb(50,53,84)" d="M 152.388 93.9987 C 168.974 92.1063 213.239 100.313 231.344 102.562 L 417.218 125.848 L 1063.88 203.083 L 1365.98 239.219 C 1377.98 240.7 1432.49 245.44 1439.75 248.758 C 1444.48 250.922 1447.66 254.8 1449.34 259.694 C 1450.31 262.521 1450.67 265.572 1450.72 268.547 C 1451.22 300.072 1450.39 331.794 1450.34 363.341 L 1450.13 611 L 1450.2 878.274 C 1450.16 926.016 1451.43 974.17 1449.94 1021.85 C 1449.87 1024.13 1449.61 1025.7 1448.62 1027.76 C 1448.75 1029.9 1447.45 1032.18 1446.15 1033.81 C 1443.74 1036.84 1440.63 1038.77 1436.92 1039.8 C 1421.16 1044.15 1399.63 1045.27 1382.9 1047.56 A 8510.36 8510.36 0 0 1 1278.76 1062.04 A 21945.7 21945.7 0 0 0 983.164 1103.83 L 466.212 1177.54 L 250.994 1208.21 L 191.05 1216.7 C 177.745 1218.63 164.319 1221.11 150.885 1221.83 C 146.13 1219.21 141.441 1216.06 138.953 1211.05 C 137.263 1207.65 136.979 1203.51 136.822 1199.77 C 135.518 1168.72 136.984 1137.01 137.012 1105.88 L 137.042 912.116 L 137.544 355.19 C 137.543 325.13 134.917 118.326 139.56 105.599 C 141.777 99.52 147.002 96.7347 152.388 93.9987 z"/>
<path transform="translate(0,0)" fill="rgb(254,254,254)" d="M 153.359 102.061 C 170.911 100.285 214.856 109.093 235.356 111.617 A 23584.1 23584.1 0 0 1 470.513 140.875 L 1232.01 231.263 L 1372.79 248.568 C 1390.52 250.75 1408.68 251.713 1426.28 254.516 C 1430.01 255.11 1434.7 255.883 1438 257.835 C 1440.71 259.437 1440.89 262.9 1441.33 265.744 C 1444.26 284.703 1442.39 321.614 1442.41 342.283 L 1442.22 516.577 L 1442.39 853.759 A 8108.8 8108.8 0 0 1 1442.54 970.207 C 1442.44 986.9 1443.71 1004.57 1441.8 1021.15 C 1441.44 1024.28 1441.24 1028.29 1439.32 1030.9 C 1423.17 1036.19 1399.23 1037.41 1381.89 1039.75 A 7943.97 7943.97 0 0 1 1279.08 1053.76 L 402.145 1178.06 L 210.246 1205.31 C 198.104 1207.01 161.201 1214.22 152.265 1213.02 C 150.877 1212.84 150.316 1212.41 149.442 1211.41 C 146.54 1208.1 145.787 1202.86 145.473 1198.6 C 143.872 1176.95 145.877 1154.06 145.907 1132.29 L 145.933 983.809 L 145.872 539.576 L 145.959 243.044 L 145.942 153.018 C 145.947 139.569 144.699 124.772 146.075 111.452 C 146.546 106.897 150.017 104.617 153.359 102.061 z"/>
<path transform="translate(0,0)" fill="rgb(151,247,217)" d="M 1308.3 854.946 C 1318.34 859.281 1331.71 864.115 1340 871.279 C 1342.5 872.393 1345.15 873.64 1347.84 874.19 C 1359.03 876.477 1371.91 865.684 1380.59 859.712 C 1380.17 862.534 1379.89 862.821 1377.95 864.946 L 1376.4 866.778 L 1375.57 867.263 C 1364.45 873.81 1360.6 881.191 1346.5 877.71 C 1342.65 876.759 1339.29 875.275 1335.77 873.476 C 1327.28 870.287 1318.74 864.107 1310.56 859.854 L 1308.3 854.946 z"/>
<path transform="translate(0,0)" fill="rgb(151,247,217)" d="M 1203.34 870.004 C 1210.44 856.869 1215.07 842.236 1221.27 828.623 C 1224.9 820.655 1230.69 809.234 1239.72 806.341 C 1255.44 801.303 1268.03 832.579 1280.86 838.869 C 1281.12 838.996 1281.38 839.113 1281.64 839.235 L 1277.94 840.785 L 1274.42 841.222 L 1273.61 840.389 C 1266.09 832.542 1255.98 810.238 1243.99 809.813 C 1240.11 809.676 1236.64 811.913 1234.02 814.594 C 1221.26 827.695 1216.83 852.282 1207.44 868.139 L 1203.34 870.004 z"/>
<path transform="translate(0,0)" fill="rgb(50,53,84)" d="M 934.867 603.859 C 947.843 603.882 990.174 603.544 1000.36 607.252 C 1002.06 609.994 1001.62 610.71 1001.32 613.836 C 990.604 614.548 946.062 613.355 936.939 610.595 C 934.814 608.063 935.077 607.223 934.867 603.859 z"/>
<path transform="translate(0,0)" fill="rgb(50,53,84)" d="M 1218.26 612.557 C 1236.14 613.305 1266.8 611.769 1282.82 615.364 C 1284.86 617.746 1284.49 618.878 1284.68 621.938 C 1272.66 622.63 1229.72 622.803 1219.73 619.674 C 1217.6 616.962 1218.1 615.879 1218.26 612.557 z"/>
<path transform="translate(0,0)" fill="rgb(205,53,131)" d="M 1000.34 977.926 C 1002.72 975.981 1004.93 974.451 1007.69 973.094 C 1003.04 983.238 997.927 993.108 991.628 1002.34 C 978.34 1021.24 962.745 1033.87 939.498 1038.03 C 933.821 1039.05 919.334 1042.07 914.816 1038.28 C 914.656 1038.14 914.539 1037.96 914.4 1037.81 C 915.552 1035.82 917.004 1035.56 919.15 1034.95 C 925.336 1033.19 932.532 1033.36 938.947 1032.7 C 958.799 1030.67 973.082 1019.24 985.311 1004.29 C 990.856 995.873 995.49 986.758 1000.34 977.926 z"/>
<path transform="translate(0,0)" fill="rgb(151,247,217)" d="M 1301.32 852.959 L 1304.46 859.124 L 1303.52 860.08 C 1294.45 869.324 1285.76 900.561 1274.8 900.149 C 1271.25 900.016 1268.22 897.055 1266.1 894.463 C 1259.57 886.487 1255.47 868.426 1246.44 864.178 C 1243.15 864.552 1241.67 866.046 1239.67 868.63 C 1229.76 881.419 1222.38 930.918 1205.79 933.015 C 1202.78 933.395 1200.02 931.878 1197.87 929.911 C 1188.4 921.258 1183.71 902.936 1178.99 891.14 L 1181.82 889.222 C 1188.23 900.195 1189.74 915.495 1198.44 925.222 C 1200.83 927.894 1202.24 928.408 1205.61 928.596 C 1221.49 921.563 1226.9 884.109 1235.61 869.008 C 1237.97 864.914 1241.16 860.827 1245.92 859.58 C 1259.18 861.212 1260.62 886.797 1271.62 893.755 C 1273.33 894.834 1275.07 895.355 1277.06 894.923 C 1285.32 893.13 1296.51 861.077 1301.32 852.959 z"/>
<path transform="translate(0,0)" fill="rgb(50,53,84)" d="M 1219.99 689.337 C 1247.66 690.28 1275.4 690.046 1303.08 690.094 C 1313.04 690.111 1329.95 688.394 1339.2 690.719 C 1341.25 691.236 1341.35 691.824 1342.38 693.532 C 1341.86 696.156 1341.75 696.449 1339.85 698.317 C 1318.74 699.773 1296.75 698.511 1275.58 698.369 C 1258.63 698.256 1240.66 699.34 1223.81 697.74 C 1221.04 697.478 1220.09 697.176 1218.34 695.046 C 1218.37 692.254 1218.55 691.737 1219.99 689.337 z"/>
<path transform="translate(0,0)" fill="rgb(50,53,84)" d="M 935.828 680.8 C 950.208 680.611 1061.39 683.177 1067.24 685.438 C 1069.06 688.224 1068.44 689.04 1068 692.251 C 1055.55 693.197 943.639 690.101 936.394 687.809 C 935.116 685.007 935.517 683.812 935.828 680.8 z"/>
<path transform="translate(0,0)" fill="rgb(151,247,217)" d="M 1014.43 903.102 L 1017.66 903.016 C 1011.08 931.346 1004.24 959.03 993.891 986.273 C 986.811 977.967 964.868 941.7 956.569 940.995 C 952.166 941.84 949.442 945.735 947.029 949.255 C 937.258 963.511 936.147 995.378 916.911 999.083 C 908.92 1000.62 900.306 998.356 892.442 996.878 C 884.451 1007.32 879.868 1021.38 879.175 1034.49 L 878.823 1002.17 L 879.01 995.972 L 888.775 989.007 L 891.047 992.864 L 890.754 993.709 C 899.269 991.437 908.667 994.562 917.206 995.858 C 936.963 982.855 932.959 953.435 949.409 939.123 C 951.875 936.977 954.882 935.671 958.192 936.192 C 968.166 937.761 986.883 971.558 993.527 980.865 C 1000.77 954.936 1008.57 929.405 1014.43 903.102 z"/>
<path transform="translate(0,0)" fill="rgb(205,53,131)" d="M 879.01 995.972 L 888.775 989.007 L 891.047 992.864 L 890.754 993.709 C 886.891 996.523 882.967 999.824 878.823 1002.17 L 879.01 995.972 z"/>
<path transform="translate(0,0)" fill="rgb(50,53,84)" d="M 1218.86 662.996 L 1348.5 666.383 C 1361.87 666.818 1377.94 665.067 1390.92 667.732 C 1393.28 668.218 1394.28 668.439 1395.55 670.436 C 1394.34 673.216 1394.08 673.158 1391.32 674.511 C 1384.75 675.224 1377.34 674.442 1370.72 674.335 L 1325.22 673.398 C 1292.44 672.632 1254.64 673.356 1222.46 670.722 C 1221 670.603 1220.14 670.214 1218.88 669.515 C 1217.57 666.843 1218.25 665.845 1218.86 662.996 z"/>
<path transform="translate(0,0)" fill="rgb(50,53,84)" d="M 1218.79 636.924 L 1343.49 640.724 C 1358.83 641.189 1375.27 639.516 1390.43 641.609 C 1393.37 642.014 1394.2 642.175 1395.96 644.58 C 1395.28 647.768 1395.24 647.631 1392.5 649.419 A 6132.81 6132.81 0 0 1 1278.26 646.536 C 1259.8 646.04 1240.61 646.859 1222.28 645.094 C 1220.63 644.935 1219.91 644.685 1218.64 643.616 C 1217.53 641.316 1218.28 639.289 1218.79 636.924 z"/>
<path transform="translate(0,0)" fill="rgb(50,53,84)" d="M 937.018 629.285 C 960.2 629.091 983.636 631.094 1006.85 631.602 A 3710.99 3710.99 0 0 1 1074.95 633.739 C 1086.25 634.155 1098.04 633.924 1109.28 635.127 C 1111.29 635.342 1112.22 635.618 1113.71 636.978 C 1114.28 639.628 1114.01 640.248 1113.23 642.759 C 1083.32 643.115 1053.1 640.796 1023.18 639.903 C 996.377 639.102 968.732 639.794 942.06 637.473 C 939.721 637.27 938.339 637.059 936.492 635.589 C 935.746 632.709 936.153 632.048 937.018 629.285 z"/>
<path transform="translate(0,0)" fill="rgb(50,53,84)" d="M 936.314 654.998 C 956.547 655.929 1108.36 659.356 1113.1 662.449 C 1114.07 665.203 1113.14 666.791 1112.35 669.486 L 991.377 665.217 C 974.671 664.62 957.408 665.11 940.798 663.59 C 938.866 663.413 937.752 663.172 936.141 662.034 C 934.974 659.411 935.617 657.694 936.314 654.998 z"/>
<path transform="translate(0,0)" fill="rgb(254,254,254)" d="M 1207.44 868.139 C 1216.83 852.282 1221.26 827.695 1234.02 814.594 C 1236.64 811.913 1240.11 809.676 1243.99 809.813 C 1255.98 810.238 1266.09 832.542 1273.61 840.389 L 1274.42 841.222 C 1257.26 845.078 1241.17 852.105 1225.35 859.656 C 1219.27 862.295 1213.36 865.175 1207.44 868.139 z"/>
<path transform="translate(0,0)" fill="rgb(254,254,254)" d="M 1009.79 903.145 L 1014.43 903.102 C 1008.57 929.405 1000.77 954.936 993.527 980.865 C 986.883 971.558 968.166 937.761 958.192 936.192 C 954.882 935.671 951.875 936.977 949.409 939.123 C 932.959 953.435 936.963 982.855 917.206 995.858 C 908.667 994.562 899.269 991.437 890.754 993.709 L 891.047 992.864 C 916.79 974.237 931.304 944.512 958.648 926.159 C 965.786 921.205 973.79 917.102 981.333 912.767 C 990.751 908.388 1000.43 906.836 1009.79 903.145 z"/>
<path transform="translate(0,0)" fill="rgb(50,53,84)" d="M 1276.11 732.522 C 1301.99 731.902 1327.92 732.137 1353.8 732.015 C 1365.14 731.962 1378.93 730.431 1390.01 732.04 C 1392.03 732.335 1392.06 732.8 1393.21 734.385 C 1393.13 736.699 1393.2 736.811 1391.73 738.58 C 1384.57 740.988 1300.67 740.015 1287.65 740.063 L 1047.22 741.478 A 5758.74 5758.74 0 0 0 979.14 741.725 C 966.044 741.819 948.751 744.228 936.2 740.819 C 934.55 739.3 934.688 739.123 934.356 736.869 L 935.9 735.101 C 938.644 733.862 941.385 733.492 944.362 733.381 C 952.45 733.08 960.658 733.994 968.779 733.952 A 7271.86 7271.86 0 0 1 1053.8 733.661 L 1276.11 732.522 z"/>
<path transform="translate(0,0)" fill="rgb(254,254,254)" d="M 1283.07 843.929 C 1289.82 843.748 1293.32 844.616 1298.84 848.525 L 1301.32 852.959 C 1296.51 861.077 1285.32 893.13 1277.06 894.923 C 1275.07 895.355 1273.33 894.834 1271.62 893.755 C 1260.62 886.797 1259.18 861.212 1245.92 859.58 C 1241.16 860.827 1237.97 864.914 1235.61 869.008 C 1226.9 884.109 1221.49 921.563 1205.61 928.596 C 1202.24 928.408 1200.83 927.894 1198.44 925.222 C 1189.74 915.495 1188.23 900.195 1181.82 889.222 C 1192.72 879.977 1207.5 873.987 1220.15 867.45 C 1225.76 865.931 1231.76 862.446 1237.12 860.056 C 1252.24 853.309 1266.74 847.068 1283.07 843.929 z"/>
<path transform="translate(0,0)" fill="rgb(50,53,84)" d="M 879.164 1057.21 L 1192.32 1016.24 A 11018.8 11018.8 0 0 1 1330.38 998.184 C 1348.17 995.958 1366.17 992.576 1384 991.154 C 1387.55 990.87 1391.04 990.734 1394.5 991.72 L 1395.38 995.536 C 1392.66 997.882 1391.24 998.115 1387.71 998.626 C 1349.97 1004.09 1311.82 1008.31 1273.97 1013.22 L 1043.95 1043.32 L 938.2 1057.25 C 917.654 1059.96 895.688 1064.64 874.951 1063.85 L 873.933 1063.01 L 873.485 1063.08 L 873.469 1063.68 L 872.266 1062.94 C 870.687 1053.56 871.481 1043.45 871.408 1033.93 A 3338.7 3338.7 0 0 1 871.566 969.158 L 871.78 797.553 L 871.314 483.498 L 871.157 383.696 C 871.127 368.348 869.956 352.183 871.064 336.914 C 872.623 334.722 872.518 334.637 875.304 333.944 L 877.219 335.227 C 880.914 346.999 878.866 379.03 878.896 392.547 L 878.912 511.246 L 879.01 995.972 L 878.823 1002.17 L 879.175 1034.49 L 879.164 1057.21 z"/>
<path transform="translate(0,0)" fill="rgb(50,53,84)" d="M 1197.36 267.841 C 1214.84 268.162 1394.5 289.374 1398.46 291.193 C 1401.8 296.93 1400.52 308.282 1400.45 314.82 C 1400.4 321.014 1401.76 331.963 1397.22 336.406 C 1394.81 337.33 1207.14 318.015 1198.86 315.704 C 1194.6 306.323 1196.49 278.771 1197.36 267.841 z"/>
<path transform="translate(0,0)" fill="rgb(240,76,143)" d="M 1205.96 277.471 C 1231.95 279.146 1257.95 283.493 1283.85 286.394 C 1318.83 290.311 1354.4 293.157 1389.2 298.231 C 1389.37 298.521 1389.55 298.806 1389.7 299.103 C 1392.07 303.565 1391.09 321.361 1389.65 326.543 C 1389.29 326.863 1389.04 327.375 1388.58 327.504 C 1384.23 328.72 1228.63 309.971 1206.4 308.897 C 1206.03 298.442 1206.1 287.934 1205.96 277.471 z"/>
<path transform="translate(0,0)" fill="rgb(50,53,84)" d="M 930.962 238.715 C 948.703 241.41 966.674 242.799 984.503 244.819 L 1091.01 256.845 C 1109.22 258.885 1127.64 260.483 1145.71 263.449 C 1145.98 275.854 1148.23 299.283 1145 310.134 C 1117.74 308.842 1089.61 304.045 1062.48 300.847 A 12405.3 12405.3 0 0 0 930.204 286.545 C 929.998 274.391 927.663 249.152 930.962 238.715 z"/>
<path transform="translate(0,0)" fill="rgb(151,247,217)" d="M 937.979 248.587 C 1004.41 254.809 1070.95 262.951 1137.21 270.832 L 1137.22 300.811 L 938.037 279.039 L 937.979 248.587 z"/>
<path transform="translate(0,0)" fill="rgb(205,53,131)" d="M 1332.85 810.325 C 1339.18 804.63 1374.68 769.532 1379.09 768.514 L 1380.07 769.947 C 1377.91 778.988 1342.95 808.804 1334.84 814.427 C 1323.42 823.83 1311.35 831.649 1298.5 838.953 C 1297.47 839.542 1296.62 839.507 1296.42 840.794 L 1300.41 843.904 C 1303.34 844.781 1303.68 844.945 1305.24 847.754 C 1306.49 849.997 1307.36 852.556 1308.3 854.946 L 1310.56 859.854 C 1318.74 864.107 1327.28 870.287 1335.77 873.476 C 1339.29 875.275 1342.65 876.759 1346.5 877.71 C 1360.6 881.191 1364.45 873.81 1375.57 867.263 L 1376.4 866.778 L 1377.95 864.946 C 1379.89 862.821 1380.17 862.534 1380.59 859.712 C 1380.75 859.61 1380.93 859.514 1381.09 859.406 C 1385.48 856.483 1389.54 845.544 1394.45 845.437 C 1395.21 847.926 1394.68 849.296 1393.43 851.606 C 1391.01 856.105 1385.36 865.852 1380.95 867.972 C 1380.88 872.677 1369.28 889.046 1365.36 892.789 C 1365.2 892.942 1364.99 893.039 1364.81 893.164 C 1359.6 901.304 1353.9 908.748 1345.86 914.284 C 1343.84 914.987 1341.82 915.572 1339.66 915.431 C 1333.29 915.017 1328.95 909.442 1325.18 904.941 C 1317.92 893.403 1311.9 880.205 1308.26 867.056 L 1304.46 859.124 L 1301.32 852.959 L 1298.84 848.525 C 1293.32 844.616 1289.82 843.748 1283.07 843.929 C 1266.74 847.068 1252.24 853.309 1237.12 860.056 C 1231.76 862.446 1225.76 865.931 1220.15 867.45 C 1207.5 873.987 1192.72 879.977 1181.82 889.222 L 1178.99 891.14 C 1173.08 895.753 1165.6 903.293 1158.96 906.357 C 1153.84 910.95 1146.9 916.964 1139.55 916.281 C 1135.76 915.93 1133.31 913.238 1130.75 910.732 C 1127.21 907.032 1124.07 903.454 1121.26 899.165 C 1121.13 899.07 1120.98 898.995 1120.87 898.881 C 1116.4 894.401 1109.4 884.533 1109.23 878.196 C 1108.95 878.22 1108.67 878.253 1108.39 878.269 C 1107.18 878.339 1106.16 878.031 1104.99 877.765 C 1091.61 874.718 1073.98 881.049 1062.73 888.182 C 1058.13 891.102 1053.3 894.546 1049.14 898.065 C 1046.54 900.313 1044.05 902.128 1041.1 903.904 C 1040.84 911.31 1036.28 916.955 1032.45 923.038 C 1027.72 932.575 1012.92 967.575 1007.69 973.094 C 1004.93 974.451 1002.72 975.981 1000.34 977.926 C 1010.16 956.483 1020.44 933.913 1032.5 913.628 C 1033.39 910.889 1033.94 910.516 1032.72 907.803 C 1028.58 904.067 1023.05 903.346 1017.66 903.016 L 1014.43 903.102 L 1009.79 903.145 C 1000.43 906.836 990.751 908.388 981.333 912.767 C 973.79 917.102 965.786 921.205 958.648 926.159 C 931.304 944.512 916.79 974.237 891.047 992.864 L 888.775 989.007 C 893.069 983.244 901.14 977.526 906.303 972.091 C 923.679 953.801 936.699 934.896 958.203 920.788 C 964.301 916.924 970.611 913.543 976.977 910.149 C 987.363 904.268 998.439 900.528 1010.22 898.687 C 1018.13 895.752 1025.11 898.143 1032.46 901.518 C 1034.06 902.248 1035.57 903.042 1037.08 903.931 C 1040.23 893.191 1054.54 874.289 1060.93 864.939 C 1070.71 851.581 1081.48 839.381 1097.36 833.312 C 1108.94 828.885 1118.79 829.521 1130 834.477 C 1138.1 838.082 1146.67 845.186 1152.44 852.011 C 1159.06 858.866 1165.44 865.955 1170.56 874.035 L 1178.97 885.008 C 1186.9 879.658 1195.08 874.82 1203.34 870.004 L 1207.44 868.139 C 1213.36 865.175 1219.27 862.295 1225.35 859.656 C 1241.17 852.105 1257.26 845.078 1274.42 841.222 L 1277.94 840.785 L 1281.64 839.235 C 1299.03 838.27 1319.08 820.47 1332.85 810.325 z"/>
<path transform="translate(0,0)" fill="rgb(254,254,254)" d="M 1310.56 859.854 C 1318.74 864.107 1327.28 870.287 1335.77 873.476 C 1339.29 875.275 1342.65 876.759 1346.5 877.71 C 1360.6 881.191 1364.45 873.81 1375.57 867.263 L 1376.4 866.778 C 1373.93 875.108 1365.87 882.434 1361.75 890.149 C 1355.47 898.238 1350.01 905.277 1341.36 911.008 C 1335.93 909.836 1333.08 906.699 1329.53 902.739 C 1321.48 889.702 1316.3 874.624 1310.17 860.605 L 1310.56 859.854 z"/>
<path transform="translate(0,0)" fill="rgb(254,254,254)" d="M 1064.19 868.12 C 1072.11 857.483 1080.81 847.114 1092.68 840.737 C 1103.81 834.756 1113.87 833.932 1125.85 837.56 C 1136.23 843.123 1144.71 850.173 1152.74 858.708 A 703.844 703.844 0 0 1 1167.23 877.115 L 1174.96 887.476 C 1169.46 891.568 1163.82 895.523 1158.95 900.376 C 1154.05 904.11 1146.1 911.724 1139.69 910.826 C 1137.94 910.582 1136.45 909.729 1134.96 908.829 C 1131.71 905.02 1128.64 901.016 1125.5 897.115 C 1122.79 890.892 1117.29 884.501 1113.51 878.743 L 1109.23 878.196 C 1108.95 878.22 1108.67 878.253 1108.39 878.269 C 1107.18 878.339 1106.16 878.031 1104.99 877.765 C 1091.61 874.718 1073.98 881.049 1062.73 888.182 C 1058.13 891.102 1053.3 894.546 1049.14 898.065 L 1048.47 895.838 L 1047.38 896.09 C 1049.59 887.287 1059.13 875.973 1064.19 868.12 z"/>
<path transform="translate(0,0)" fill="rgb(151,247,217)" d="M 1048.47 895.838 C 1050.74 893.095 1053.05 890.741 1055.93 888.628 C 1067.83 879.893 1089.47 870.347 1104.57 873.111 C 1108.67 873.86 1111.19 875.281 1113.51 878.743 L 1109.23 878.196 C 1108.95 878.22 1108.67 878.253 1108.39 878.269 C 1107.18 878.339 1106.16 878.031 1104.99 877.765 C 1091.61 874.718 1073.98 881.049 1062.73 888.182 C 1058.13 891.102 1053.3 894.546 1049.14 898.065 L 1048.47 895.838 z"/>
<path transform="translate(0,0)" fill="rgb(50,53,84)" d="M 211.222 156.261 C 222.881 155.364 429.084 179.09 437.914 182.642 C 438.183 183.201 438.312 183.445 438.547 184.074 C 441.358 191.584 441.396 223.28 438.069 230.709 C 385.459 224.041 332.515 218.354 279.789 212.59 C 263.375 210.796 226.474 209.225 212.468 204.43 C 211.439 204.078 211.755 204.341 211.269 203.205 C 208.566 196.882 208.879 161.985 211.222 156.261 z"/>
<path transform="translate(0,0)" fill="rgb(151,247,217)" d="M 218.166 164.211 L 356.447 180.439 C 381.471 183.387 407.229 185.363 431.9 190.415 L 431.983 221.942 C 405.645 217.342 378.517 215.475 351.941 212.348 C 307.343 207.101 262.321 201.23 217.561 197.782 L 218.166 164.211 z"/>
<path transform="translate(0,0)" fill="rgb(50,53,84)" d="M 491.531 188.386 L 752.002 218.058 C 794.244 222.92 836.87 226.562 878.965 232.436 C 879.07 241.823 881.284 273.419 876.794 279.351 C 845.481 278.413 490.779 237.489 490.249 237.203 C 488.169 232.762 488.031 228.071 487.928 223.259 C 487.742 214.582 485.56 194.603 491.531 188.386 z"/>
<path transform="translate(0,0)" fill="rgb(240,76,143)" d="M 496.104 196.83 A 34544.8 34544.8 0 0 0 870.911 239.649 C 871.222 250.148 871.044 260.704 871.083 271.21 C 818.721 264.337 766.009 259.615 713.541 253.666 A 8482.25 8482.25 0 0 0 577.262 238.707 C 550.214 235.714 523.181 232.166 496.087 229.682 C 496.266 218.742 496.104 207.774 496.104 196.83 z"/>
<path transform="translate(0,0)" fill="rgb(50,53,84)" d="M 1290.14 386.387 A 95.4538 95.4538 0 0 1 1347.96 404.942 C 1370.01 421.497 1387.38 446.503 1391 474.125 C 1393.9 496.163 1389.45 518.892 1375.48 536.555 C 1361.83 553.821 1343.59 561.301 1322.3 563.922 C 1296.85 565.19 1274.15 556.386 1254.92 539.983 C 1234.88 522.891 1221.23 497.657 1219.23 471.289 C 1217.6 449.651 1224.29 427.326 1238.57 410.826 C 1251.98 395.33 1269.97 387.831 1290.14 386.387 z"/>
<path transform="translate(0,0)" fill="rgb(151,247,217)" d="M 1365.99 436.094 C 1367.61 436.548 1368.48 437.126 1369.48 438.454 C 1382.19 455.376 1386.59 481.16 1382.93 501.554 C 1379.49 520.69 1370.12 535.719 1354.26 546.848 C 1351.51 542.587 1349.31 537.788 1346.95 533.288 C 1337.51 514.888 1326.57 497.301 1317.24 478.778 C 1330.44 466.095 1356.07 449.706 1365.99 436.094 z"/>
<path transform="translate(0,0)" fill="rgb(240,76,143)" d="M 1290.36 395.399 C 1293.43 395.038 1296.48 395.111 1299.56 395.284 C 1325.11 396.722 1346.33 411.178 1362.98 429.623 C 1349.24 441.989 1335.26 453.711 1320.63 465.008 L 1312.68 471.535 C 1292.69 450.703 1273.39 428.857 1254.2 407.275 C 1265.53 399.672 1276.98 396.63 1290.36 395.399 z"/>
<path transform="translate(0,0)" fill="rgb(50,53,84)" d="M 1000.55 341.244 C 1026.84 338.655 1050.09 345.152 1072.06 359.48 C 1099.42 377.322 1120.03 407.422 1126.67 439.508 C 1132.28 466.612 1127.57 494.131 1112.09 517.196 C 1098.54 537.378 1078.47 549.027 1054.97 553.737 C 1054.69 553.795 1054.41 553.857 1054.13 553.911 C 1029.16 558.744 1001.74 551.057 980.992 537.035 C 952.248 517.608 932.393 489.799 925.786 455.505 C 920.813 429.696 924.198 401.282 939.248 379.274 C 954.29 357.276 974.793 345.99 1000.55 341.244 z"/>
<path transform="translate(0,0)" fill="rgb(240,76,143)" d="M 1017.78 348.621 C 1041.98 349.68 1065.39 362.174 1082.8 378.39 A 118.345 118.345 0 0 1 1121.1 462.283 C 1091.66 458.714 1057.52 449.866 1028.04 443.805 C 1026.2 411.922 1019.44 380.466 1017.78 348.621 z"/>
<path transform="translate(0,0)" fill="rgb(151,247,217)" d="M 1027.83 452.192 C 1042.12 454.593 1056.35 458.21 1070.53 461.218 C 1086.86 464.68 1103.31 467.663 1119.52 471.593 C 1119.04 479.831 1117.11 487.743 1114.14 495.434 C 1105.9 516.751 1091.72 531.687 1070.98 541.051 C 1065.18 543.34 1059.02 545.205 1052.86 546.182 C 1029.07 549.952 1003.02 543.005 983.585 528.993 C 998.492 503.612 1011.5 476.659 1027.83 452.192 z"/>
<path transform="translate(0,0)" fill="rgb(151,247,217)" d="M 1001.62 349.189 L 1007.01 348.956 C 1012.27 353.352 1018.34 432.495 1021.03 446.727 L 976.894 524.103 C 972.13 520.33 967.796 516.177 963.414 511.978 C 949.042 497.888 938.151 476.559 933.903 457.097 C 928.526 432.466 931.609 405.538 945.611 384.195 C 958.954 363.858 978.384 353.951 1001.62 349.189 z"/>
<path transform="translate(0,0)" fill="rgb(50,53,84)" d="M 213.629 262.585 C 238.66 262.655 264.186 267.162 289.111 269.433 L 452.979 284.953 L 601.533 299.925 C 665.513 305.822 729.895 311.043 793.651 318.941 C 794.533 332.456 793.853 346.321 793.778 359.881 L 793.399 433.339 C 793.188 486.894 794.641 540.706 793.385 594.219 C 793.307 597.533 793.393 600.452 791.741 603.419 C 779.172 604.142 766.008 602.908 753.403 602.374 A 3733.25 3733.25 0 0 1 678.874 598.668 C 624.068 595.711 569.174 593.955 514.341 591.519 L 319.39 583.437 C 284.555 582.04 248.288 582.667 213.734 578.251 C 212.817 577.24 212.125 576.376 211.719 575.046 C 209.295 567.111 211.002 502.039 210.988 487.79 L 210.9 347.992 C 210.895 323.255 210.159 298.247 211.098 273.538 C 211.255 269.406 211.78 266.317 213.629 262.585 z"/>
<path transform="translate(0,0)" fill="rgb(254,254,254)" d="M 219.221 271.082 C 267.917 276.338 316.892 279.834 365.65 284.628 L 785.903 326.173 L 785.968 595.419 C 778.346 595.088 770.643 594.964 763.042 594.37 L 763.068 412.542 L 735.039 410.456 L 734.661 592.492 L 720.074 592.023 C 706.648 591.236 693.095 591.553 679.714 590.27 L 678.856 589.844 C 676.224 584.475 677.969 397.922 677.419 373.03 A 1482.37 1482.37 0 0 1 648.894 369.904 L 648.581 588.137 L 634.002 587.713 L 634.034 431.371 C 624.57 430.743 615.066 430.264 605.696 428.735 L 605.999 586.734 L 590.74 585.933 C 580.782 585.504 570.792 585.212 560.875 584.188 L 546.41 583.854 C 545.578 543.613 546.081 503.257 546.194 463.004 C 536.017 461.825 525.824 461.215 515.678 459.693 C 516.673 500.395 515.921 541.25 515.851 581.97 L 501.473 581.781 C 500.541 560.499 501.242 538.897 501.193 517.581 A 8106.38 8106.38 0 0 1 501.314 402.081 C 491.714 402.009 482.153 400.859 472.632 399.736 C 470.774 459.711 471.992 520.03 471.985 580.045 C 466.968 580.07 462.025 579.906 457.021 579.551 C 447.393 578.199 436.997 578.514 427.251 578.117 L 412.223 577.793 C 401.689 577.767 390.804 577.315 380.316 576.384 L 367.683 575.839 L 367.568 395.016 A 1289.23 1289.23 0 0 0 337.566 392.669 A 11386.1 11386.1 0 0 1 337.272 574.2 L 321.935 574.033 A 10711.8 10711.8 0 0 1 321.974 434.298 C 311.907 433.074 301.93 432.133 291.801 431.614 L 291.441 572.65 A 286.587 286.587 0 0 1 275.13 571.724 C 261.318 571.451 247.392 571.278 233.614 570.29 L 219.337 569.836 L 219.221 271.082 z"/>
<path transform="translate(0,0)" fill="rgb(240,76,143)" d="M 382.882 470.763 C 388.725 471.211 408.527 470.739 411.754 474.416 C 412.839 484.394 412.376 494.639 412.343 504.668 C 412.262 528.865 411.029 553.668 412.223 577.793 C 401.689 577.767 390.804 577.315 380.316 576.384 C 382.906 573.938 382.151 570.513 382.245 567.119 C 383.132 535.042 381.66 502.82 382.882 470.763 z"/>
<path transform="translate(0,0)" fill="rgb(240,76,143)" d="M 242.731 455.902 C 253.44 456.698 264.277 457.891 275.006 458.144 L 275.13 571.724 C 261.318 571.451 247.392 571.278 233.614 570.29 L 241.997 570.175 C 244.222 567.289 242.895 467.849 242.731 455.902 z"/>
<path transform="translate(0,0)" fill="rgb(240,76,143)" d="M 691.797 440.774 A 218.809 218.809 0 0 0 720.513 443.307 C 720.038 492.818 721.549 542.554 720.074 592.023 C 706.648 591.236 693.095 591.553 679.714 590.27 C 683.13 590.327 687.462 590.964 690.621 589.573 C 692.952 578.711 691.173 558.579 691.25 546.831 A 6809.63 6809.63 0 0 0 691.797 440.774 z"/>
<path transform="translate(0,0)" fill="rgb(240,76,143)" d="M 427.56 426.858 C 437.36 428.183 447.191 428.866 457.051 429.578 L 457.021 579.551 C 447.393 578.199 436.997 578.514 427.251 578.117 C 427.208 527.76 426.188 477.19 427.56 426.858 z"/>
<path transform="translate(0,0)" fill="rgb(240,76,143)" d="M 560.88 409.044 C 570.728 410.166 580.88 411.881 590.774 412.149 A 11682.5 11682.5 0 0 1 590.74 585.933 C 580.782 585.504 570.792 585.212 560.875 584.188 C 558.991 525.957 560.617 467.314 560.88 409.044 z"/>
<path transform="translate(0,0)" fill="rgb(50,53,84)" d="M 216.212 650.321 A 34276.2 34276.2 0 0 1 786.912 665.794 C 789.857 665.884 791.344 665.939 793.399 668.136 C 794.844 684.641 793.838 701.652 793.821 718.23 L 793.804 810.66 L 793.769 968.112 C 793.788 996.936 794.366 1025.89 793.739 1054.7 C 793.654 1058.59 793.922 1067.78 791.63 1070.89 C 790.356 1072.62 734.476 1078.6 727.765 1079.61 C 715.689 1080.59 703.524 1082.77 691.46 1084.13 A 6689.73 6689.73 0 0 0 575.425 1098.2 L 366.96 1122.88 C 350.356 1124.95 218.146 1143.11 212.832 1141.31 C 211.119 1138.64 211.283 1134.22 211.233 1131.12 C 210.49 1084.64 211.029 1038.07 211.049 991.577 L 210.912 783.548 L 210.921 696.581 C 210.876 684.51 209.032 667.245 211.388 655.621 C 211.924 652.978 214.108 651.733 216.212 650.321 z"/>
<path transform="translate(0,0)" fill="rgb(254,254,254)" d="M 220.019 658.122 C 241.733 658.009 263.532 659.233 285.248 659.679 L 481.476 665.32 A 27145.9 27145.9 0 0 1 785.808 674.162 L 786.01 943.989 A 7787.31 7787.31 0 0 1 785.791 1034.91 C 785.785 1041.72 786.973 1048.59 786.825 1055.34 C 786.761 1058.31 785.773 1060.77 784.346 1063.33 C 781.568 1065.69 778.21 1065.34 774.734 1065.47 C 754.585 1068.2 734.229 1069.73 714.133 1072.7 L 710.856 1072.89 C 692.119 1074.85 671.436 1078.73 652.781 1079.02 L 651.62 1079.32 C 631.74 1082.97 611.039 1084.86 590.943 1087.15 L 588.471 1087.43 C 568.607 1089.84 548.666 1091.83 528.845 1094.55 L 525.11 1095.03 A 1603.19 1603.19 0 0 0 464.947 1101.9 L 462.285 1102.55 C 443.332 1104.86 423.018 1108.8 404.039 1109.04 L 402.634 1109.35 A 2474.68 2474.68 0 0 1 344.796 1116.51 L 341.449 1116.87 A 1651.79 1651.79 0 0 0 283.901 1124.53 L 280.341 1124.91 C 266.107 1125.75 252.085 1128.95 237.885 1130.25 C 231.922 1131.09 225.95 1131.65 219.955 1132.2 L 220.019 658.122 z"/>
<path transform="translate(0,0)" fill="rgb(240,76,143)" d="M 281.1 945.046 C 280.266 1004.95 282.105 1065.05 280.341 1124.91 C 266.107 1125.75 252.085 1128.95 237.885 1130.25 C 248.138 1091.33 255.03 1051.28 262.745 1011.78 C 265.846 995.905 267.642 979.029 272.393 963.596 C 274.414 957.031 277.83 951.052 281.1 945.046 z"/>
<path transform="translate(0,0)" fill="rgb(240,76,143)" d="M 712.79 845.008 L 713.543 839.509 C 717.819 845.744 722.742 871.576 724.968 880.003 C 737.41 927.105 748.929 974.492 761.785 1021.48 C 765.378 1034.6 767.817 1048.61 772.104 1061.47 C 772.845 1063.69 772.818 1064.14 774.734 1065.47 C 754.585 1068.2 734.229 1069.73 714.133 1072.7 L 710.856 1072.89 C 711.344 1035.79 710.322 998.646 711.142 961.552 C 709.614 923.131 711.242 884.242 710.728 845.753 L 712.79 845.008 z"/>
<path transform="translate(0,0)" fill="rgb(240,253,245)" d="M 712.79 845.008 C 715.007 849.44 714.582 911.87 713.876 920.909 A 12183.8 12183.8 0 0 1 714.133 1072.7 L 710.856 1072.89 C 711.344 1035.79 710.322 998.646 711.142 961.552 C 709.614 923.131 711.242 884.242 710.728 845.753 L 712.79 845.008 z"/>
<path transform="translate(0,0)" fill="rgb(240,76,143)" d="M 283.053 942.503 L 295.978 918.195 C 305.513 942.875 316.207 967.287 326.574 991.634 C 331.058 1002.16 338.655 1014.69 340.393 1025.91 C 341.965 1036.07 341.236 1046.95 341.211 1057.22 C 341.161 1077.09 340.766 1097 341.449 1116.87 A 1651.79 1651.79 0 0 0 283.901 1124.53 C 283.014 1109.53 283.47 1094.26 283.463 1079.23 L 283.45 993.013 C 283.445 976.218 283.902 959.276 283.053 942.503 z"/>
<path transform="translate(0,0)" fill="rgb(240,76,143)" d="M 394.972 838.339 C 399.371 844.383 400.348 847.784 400.251 855.283 L 403.026 855.405 C 405.838 884.087 403.644 914.732 403.65 943.608 L 404.039 1109.04 L 402.634 1109.35 A 2474.68 2474.68 0 0 1 344.796 1116.51 A 4488.6 4488.6 0 0 1 344.629 1065.27 C 344.626 1053.54 344.05 1041.43 345.48 1029.78 C 347.963 1009.55 357.648 983.529 362.834 962.957 L 381.227 890.491 C 385.552 873.048 389.238 855.39 394.972 838.339 z"/>
<path transform="translate(0,0)" fill="rgb(240,253,245)" d="M 400.251 855.283 L 403.026 855.405 C 405.838 884.087 403.644 914.732 403.65 943.608 L 404.039 1109.04 L 402.634 1109.35 C 401.228 1107.75 401.16 1106.82 400.995 1104.66 C 399.371 1083.41 400.767 1060.8 400.726 1039.42 C 400.608 978.17 402.605 916.453 400.251 855.283 z"/>
<path transform="translate(0,0)" fill="rgb(240,76,143)" d="M 492.005 868.24 C 503.634 883.835 514.078 900.242 525.677 915.826 C 524.501 942.985 525.152 970.413 525.088 997.601 C 525.012 1030.04 524.389 1062.61 525.11 1095.03 A 1603.19 1603.19 0 0 0 464.947 1101.9 L 464.909 985.099 C 464.905 964.696 465.877 943.711 464.36 923.374 C 473.472 904.933 483.234 886.86 492.005 868.24 z"/>
<path transform="translate(0,0)" fill="rgb(240,76,143)" d="M 587.234 853.64 C 586.945 874.259 585.468 1083.49 588.09 1087.04 C 588.198 1087.19 588.344 1087.3 588.471 1087.43 C 568.607 1089.84 548.666 1091.83 528.845 1094.55 L 525.11 1095.03 C 524.389 1062.61 525.012 1030.04 525.088 997.601 C 525.152 970.413 524.501 942.985 525.677 915.826 L 526.653 916.221 C 528.516 919.559 527.456 980.836 527.495 988.477 C 527.567 972.995 525.787 929.42 528.373 917.936 C 529.353 913.583 536.536 909.536 540.003 907.166 C 557.685 893.372 573.859 871.761 587.234 853.64 z"/>
<path transform="translate(0,0)" fill="rgb(240,253,245)" d="M 525.677 915.826 L 526.653 916.221 C 528.516 919.559 527.456 980.836 527.495 988.477 C 527.567 972.995 525.787 929.42 528.373 917.936 C 529.353 913.583 536.536 909.536 540.003 907.166 A 286.086 286.086 0 0 1 529.613 918.228 C 527.951 976.868 528.641 1035.87 528.845 1094.55 L 525.11 1095.03 C 524.389 1062.61 525.012 1030.04 525.088 997.601 C 525.152 970.413 524.501 942.985 525.677 915.826 z"/>
<path transform="translate(0,0)" fill="rgb(240,76,143)" d="M 653.277 886.884 C 672.974 868.673 692.089 849.231 710.776 829.976 L 710.728 845.753 C 711.242 884.242 709.614 923.131 711.142 961.552 C 710.322 998.646 711.344 1035.79 710.856 1072.89 C 692.119 1074.85 671.436 1078.73 652.781 1079.02 C 654.174 1033.5 653.039 987.539 653.031 941.978 C 653.028 923.801 651.85 904.976 653.277 886.884 z"/>
<path transform="translate(0,0)" fill="rgb(240,76,143)" d="M 403.026 855.405 L 403.471 851.938 C 405.561 852.404 406.515 853.686 407.85 855.31 C 413.709 862.439 418.753 870.552 424.514 877.871 C 436.947 893.667 450.225 909.189 461.92 925.523 L 461.896 1042.03 C 461.914 1061.93 460.668 1082.76 462.285 1102.55 C 443.332 1104.86 423.018 1108.8 404.039 1109.04 L 403.65 943.608 C 403.644 914.732 405.838 884.087 403.026 855.405 z"/>
<path transform="translate(0,0)" fill="rgb(240,76,143)" d="M 590.116 850.815 C 601.338 832.904 614.558 815.834 626.343 798.213 C 635.934 825.66 641.879 855.091 649.295 883.228 C 650.519 884.549 651.667 886.031 653.277 886.884 C 651.85 904.976 653.028 923.801 653.031 941.978 C 653.039 987.539 654.174 1033.5 652.781 1079.02 L 651.62 1079.32 C 631.74 1082.97 611.039 1084.86 590.943 1087.15 C 589.543 1008.45 590.501 929.545 590.116 850.815 z"/>
<path transform="translate(0,0)" fill="rgb(240,253,245)" d="M 649.295 883.228 C 650.519 884.549 651.667 886.031 653.277 886.884 C 651.85 904.976 653.028 923.801 653.031 941.978 C 653.039 987.539 654.174 1033.5 652.781 1079.02 L 651.62 1079.32 L 649.722 1078.5 C 647.539 1072.36 649.171 1051 649.177 1043.43 L 649.404 940.849 C 649.511 921.883 650.857 902.087 649.295 883.228 z"/>
</svg>